# xmcd CD database file
#
# Track frame offsets:
#	150
#	16595
#	32842
#	49697
#	65910
#	83690
#	103215
#	128537
#	149675
#
# Disc length: 2208 seconds
#
# Revision: 0
# Processed by: cddbd v1.5.1PL0 Copyright (c) Steve Scherf et al.
# Submitted via: CDex 1.51
#
DISCID=77089e09
DTITLE=南佳孝 - ニュースタンダード
DYEAR=1900
DGENRE=Jazz
TTITLE0=Losting
TTITLE1=Bottom Line
TTITLE2=Desert Storm
TTITLE3=Prisoner
TTITLE4=サヨナラゲーム
TTITLE5=ファベーラの冬
TTITLE6=Reserved
TTITLE7=地上の虹
TTITLE8=夏の夜明け
EXTD=
EXTT0=
EXTT1=
EXTT2=
EXTT3=
EXTT4=
EXTT5=
EXTT6=
EXTT7=
EXTT8=
PLAYORDER=
